<?xml version="1.0" encoding="utf-8"?>
<!-- Generator: Adobe Illustrator 22.0.1, SVG Export Plug-In . SVG Version: 6.00 Build 0)  -->
<svg version="1.1" id="Layer_1" xmlns="http://www.w3.org/2000/svg" xmlns:xlink="http://www.w3.org/1999/xlink" x="0px" y="0px"
	 viewBox="0 0 956 956" style="enable-background:new 0 0 956 956;" xml:space="preserve">
<style type="text/css">
	.st0{fill:#FFFFFF;}
</style>
<g>
	<path class="st0" d="M525.4,769.5c-2.9,0.1-4.7,0.4-6.6,0.4c-39.6,0-79.2-0.1-118.8,0.1c-5.5,0-7.1-1.5-7.1-7.1
		c0.1-92.2,0.1-184.7,0.1-276.9c0-2.5,0-4.8,0-8c-21.5,0-42.6,0-63.9,0c0-32.9,0-65.3,0-98.6c2.2,0,4.2,0,6.2,0
		c17.4,0,34.8-0.1,52.1,0.1c4.4,0,5.5-1.3,5.5-5.5c-0.2-25.9-0.2-51.8,0-77.6c0.1-18.1,3.1-35.6,11.4-52
		c11.9-23.1,30.8-38,54.7-47.3c19.5-7.6,40-10.5,60.6-10.8c33.6-0.5,67.2-0.2,100.8-0.4c3.2,0,5.6-0.1,5.6,4.2c0,31.9,0,63.8,0,95.6
		c0,0.4-0.1,0.7-0.6,2.2c-2,0-4.1,0-6.4,0c-20.8,0-41.8-0.1-62.6,0c-12,0-21.8,4.8-27.9,15.4c-1.9,3.2-3.1,7.2-3.1,10.9
		c-0.4,19.8,0,39.4-0.2,59.2c0,4.6,1.4,5.9,5.9,5.9c28.9-0.2,58-0.1,86.9-0.1c2.4,0,4.5,0,8.5,0c-4,33.2-8,65.6-12,98.5
		c-30.1,0-59.4,0-89.4,0C525.4,575.1,525.4,672,525.4,769.5z"/>
</g>
</svg>
