<?xml version="1.0" encoding="utf-8"?>
<!-- Generator: Adobe Illustrator 22.0.1, SVG Export Plug-In . SVG Version: 6.00 Build 0)  -->
<svg version="1.1" id="Слой_1" xmlns="http://www.w3.org/2000/svg" xmlns:xlink="http://www.w3.org/1999/xlink" x="0px" y="0px"
	 viewBox="0 0 35 35" style="enable-background:new 0 0 35 35;" xml:space="preserve">
<style type="text/css">
	.st0{fill:#0D0E0F;}
</style>
<g>
	<path class="st0" d="M20.6,19H14c-0.6,0-1.1-0.3-1.4-0.7L4,6C3.1,4.7,4,3,5.5,3h23.6c1.5,0,2.4,1.7,1.5,3L22,18.2
		C21.7,18.7,21.2,19,20.6,19z"/>
	<path class="st0" d="M20.3,28.9l-4.8,2.9c-0.7,0.4-1.7-0.1-1.7-0.9V23c0-0.6,0.5-1.1,1.1-1.1h4.8c0.6,0,1.1,0.5,1.1,1.1v5
		C20.8,28.4,20.6,28.7,20.3,28.9z"/>
</g>
</svg>
