<?xml version="1.0" encoding="utf-8"?>
<!-- Generator: Adobe Illustrator 22.0.1, SVG Export Plug-In . SVG Version: 6.00 Build 0)  -->
<svg version="1.1" id="Слой_1" xmlns="http://www.w3.org/2000/svg" xmlns:xlink="http://www.w3.org/1999/xlink" x="0px" y="0px"
	 viewBox="0 0 956 956" style="enable-background:new 0 0 956 956;" xml:space="preserve">
<style type="text/css">
	.st0{fill:#FFFFFF;}
</style>
<g id="Layer_6">
</g>
<g id="Official_copy_3">
	<path class="st0" d="M697.5,186h-439c-41.9,0-72.5,32.4-72.5,72.5v439c0,41.9,32.4,72.5,72.5,72.5h439c41.9,0,72.5-32.4,72.5-72.5
		v-439C772,218.4,739.5,186,697.5,186z M477.9,365.4c64.8,0,118.3,51.6,118.3,114.5s-53.5,114.5-118.3,114.5
		s-118.3-51.6-118.3-114.5C361.5,415.1,413,365.4,477.9,365.4z M697.5,682.4c0,13.4-5.8,19-19,19H275.6c-13.4,0-19-5.8-19-19V424.6
		l45.8,9.5c-5.8,15.3-7.6,32.4-7.6,49.6c0,97.4,82.1,177.5,181.4,177.5c101.2,0,181.4-78.2,181.4-177.5c0-17.2-1.9-34.3-7.6-49.6
		l43.9-9.5L697.5,682.4L697.5,682.4z M697.5,352.1c0,9.5-7.6,19-19,19H606c-9.5,0-19-7.6-19-19v-74.5c0-9.5,7.6-19,19-19h72.5
		c9.5,0,19,7.6,19,19V352.1z"/>
</g>
</svg>
