<?xml version="1.0" encoding="utf-8"?>
<!-- Generator: Adobe Illustrator 22.0.1, SVG Export Plug-In . SVG Version: 6.00 Build 0)  -->
<svg version="1.1" id="Capa_1" xmlns="http://www.w3.org/2000/svg" xmlns:xlink="http://www.w3.org/1999/xlink" x="0px" y="0px"
	 viewBox="0 0 956 956" style="enable-background:new 0 0 956 956;" xml:space="preserve">
<style type="text/css">
	.st0{fill:#FFFFFF;}
</style>
<polygon class="st0" points="129.5,243.7 474.1,483.3 818.3,243.1 "/>
<g>
	<path class="st0" d="M357.4,452.8l-248-172.2c-2-1.4-4.6,0.2-4.6,2.7v402.9h0.7l252.2-228.1C359.3,456.7,359.2,454,357.4,452.8z"/>
</g>
<polygon class="st0" points="129.9,715.9 460.9,715.9 817.9,715.6 817.9,715.5 562.3,484.8 473.7,546.6 384.9,484.9 "/>
<path class="st0" d="M846.2,681.4c1.9,1.8,4.9,0.2,4.9-2.5V277.4l0,0c-0.6,0-1.1,0.2-1.6,0.5L598.7,452.8c-1.7,1.2-1.9,3.8-0.3,5.3
	L846.2,681.4z"/>
</svg>
