<?xml version="1.0" encoding="utf-8"?>
<!-- Generator: Adobe Illustrator 22.0.1, SVG Export Plug-In . SVG Version: 6.00 Build 0)  -->
<svg version="1.1" id="Слой_1" xmlns="http://www.w3.org/2000/svg" xmlns:xlink="http://www.w3.org/1999/xlink" x="0px" y="0px"
	 viewBox="0 0 186.9 35" style="enable-background:new 0 0 186.9 35;" xml:space="preserve">
<style type="text/css">
	.st0{fill:#F6E146;}
</style>
<polygon class="st0" points="19.4,2.6 23.2,14.2 35.4,14.2 25.5,21.3 29.3,32.9 19.4,25.7 9.6,32.9 13.4,21.3 3.5,14.2 15.7,14.2 
	"/>
<polygon class="st0" points="56.4,2.6 60.2,14.2 72.4,14.2 62.5,21.3 66.3,32.9 56.4,25.7 46.6,32.9 50.4,21.3 40.5,14.2 52.7,14.2 
	"/>
<polygon class="st0" points="93.4,2.6 97.2,14.2 109.4,14.2 99.5,21.3 103.3,32.9 93.4,25.7 83.6,32.9 87.4,21.3 77.5,14.2 
	89.7,14.2 "/>
<polygon class="st0" points="130.4,2.6 134.2,14.2 146.4,14.2 136.5,21.3 140.3,32.9 130.4,25.7 120.6,32.9 124.4,21.3 114.5,14.2 
	126.7,14.2 "/>
<polygon class="st0" points="167.4,2.6 171.2,14.2 183.4,14.2 173.5,21.3 177.3,32.9 167.4,25.7 157.6,32.9 161.4,21.3 151.5,14.2 
	163.7,14.2 "/>
<g>
</g>
<g>
</g>
<g>
</g>
<g>
</g>
<g>
</g>
<g>
</g>
</svg>
