<?xml version="1.0" encoding="utf-8"?>
<!-- Generator: Adobe Illustrator 22.0.1, SVG Export Plug-In . SVG Version: 6.00 Build 0)  -->
<svg version="1.1" id="Слой_1" xmlns="http://www.w3.org/2000/svg" xmlns:xlink="http://www.w3.org/1999/xlink" x="0px" y="0px"
	 viewBox="0 0 35 35" style="enable-background:new 0 0 35 35;" xml:space="preserve">
<style type="text/css">
	.st0{fill:none;stroke:#FFFFFF;stroke-width:2.1755;stroke-miterlimit:10;}
	.st1{fill:#FFFFFF;}
</style>
<path class="st0" d="M12,8.7c-4.9,0-8.9,3.4-8.9,7.7c0,4.2,4,7.7,8.9,7.7c0,0,0,1.4,0,3.3c4.7-1.9,8.9-5.7,8.9-11
	C20.9,12.1,16.9,8.7,12,8.7z"/>
<path class="st1" d="M23.9,12.3c-0.6,0-1.3,0.1-1.9,0.2c0.6,1.2,1,2.5,1,3.9c0,4.7-2.8,8.5-6.5,11.1c1.8,2.4,4.5,4.2,7.4,5.3
	c0-2.1,0-3.6,0-3.6c5.4,0,9.8-3.8,9.8-8.5C33.7,16.1,29.3,12.3,23.9,12.3z"/>
</svg>
