<?xml version="1.0" encoding="utf-8"?>
<!-- Generator: Adobe Illustrator 22.0.1, SVG Export Plug-In . SVG Version: 6.00 Build 0)  -->
<svg version="1.1" id="Слой_1" xmlns="http://www.w3.org/2000/svg" xmlns:xlink="http://www.w3.org/1999/xlink" x="0px" y="0px"
	 viewBox="0 0 35 35" style="enable-background:new 0 0 35 35;" xml:space="preserve">
<style type="text/css">
	.st0{fill:none;stroke:#FFFFFF;stroke-width:2.6482;stroke-linecap:round;stroke-miterlimit:10;}
	.st1{fill:#FFFFFF;}
</style>
<path class="st0" d="M25.3,29.8H5c-1.1,0-1.9-1-1.9-2.1V12.1C3.1,10.9,4,9.9,5,9.9h20.3c0.6,0,1.2,0.4,1.6,0.9l4.7,7.8
	c0.4,0.7,0.4,1.7,0,2.4l-4.7,7.8C26.5,29.4,25.9,29.8,25.3,29.8z"/>
<g>
	<path class="st1" d="M14.7,16.8c0,0.5-0.1,1-0.2,1.4c-0.1,0.4-0.3,0.8-0.5,1s-0.5,0.5-0.9,0.7s-0.8,0.2-1.3,0.2s-1-0.1-1.4-0.2
		c-0.4-0.2-0.7-0.4-0.9-0.7c-0.2-0.3-0.4-0.6-0.5-1s-0.1-0.8-0.1-1.3S9,16,9.1,15.6c0.1-0.4,0.3-0.8,0.5-1c0.2-0.3,0.5-0.5,0.9-0.7
		s0.8-0.2,1.3-0.2c0.6,0,1,0.1,1.4,0.3s0.7,0.4,0.9,0.7s0.4,0.6,0.4,1C14.7,15.9,14.7,16.3,14.7,16.8z M12.1,26.1
		c-0.1,0.1-0.1,0.1-0.2,0.2c-0.1,0-0.1,0.1-0.2,0.1c-0.1,0-0.2,0.1-0.3,0.1s-0.3,0-0.5,0s-0.4,0-0.5,0s-0.2-0.1-0.3-0.1
		S10,26.3,10,26.2s0-0.1,0.1-0.2L19,13.8c0.1-0.1,0.1-0.1,0.2-0.2c0.1-0.1,0.1-0.1,0.2-0.1s0.2-0.1,0.3-0.1c0.1,0,0.3,0,0.5,0
		s0.4,0,0.5,0s0.2,0.1,0.3,0.1c0.1,0.1,0.1,0.1,0.1,0.2c0,0.1-0.1,0.2-0.1,0.2L12.1,26.1z M12.8,16.8c0-0.4,0-0.7-0.1-0.9
		c0-0.2-0.1-0.4-0.2-0.6c-0.1-0.2-0.2-0.3-0.3-0.3c-0.1-0.1-0.3-0.1-0.5-0.1s-0.3,0-0.4,0.1c-0.1,0.1-0.2,0.2-0.3,0.3
		s-0.1,0.3-0.2,0.6c0,0.2-0.1,0.5-0.1,0.9c0,0.4,0,0.7,0.1,1c0,0.3,0.1,0.5,0.2,0.6c0.1,0.1,0.2,0.2,0.3,0.3
		c0.1,0.1,0.3,0.1,0.4,0.1c0.2,0,0.3,0,0.5-0.1c0.1-0.1,0.2-0.2,0.3-0.3c0.1-0.2,0.1-0.4,0.2-0.6C12.8,17.5,12.8,17.2,12.8,16.8z
		 M22.3,23c0,0.5-0.1,1-0.2,1.4s-0.3,0.8-0.5,1S21,26,20.7,26.1c-0.4,0.2-0.8,0.2-1.3,0.2s-1-0.1-1.4-0.2c-0.4-0.2-0.7-0.4-0.9-0.7
		c-0.2-0.3-0.4-0.6-0.5-1s-0.1-0.8-0.1-1.3s0.1-0.9,0.2-1.3s0.3-0.8,0.5-1c0.2-0.3,0.5-0.5,0.9-0.7s0.8-0.2,1.3-0.2
		c0.6,0,1,0.1,1.4,0.3c0.4,0.2,0.7,0.4,0.9,0.7c0.2,0.3,0.4,0.6,0.4,1C22.2,22.2,22.3,22.6,22.3,23z M20.3,23.1c0-0.4,0-0.7-0.1-0.9
		s-0.1-0.4-0.2-0.6s-0.2-0.3-0.3-0.3c-0.1-0.1-0.3-0.1-0.5-0.1s-0.3,0-0.4,0.1s-0.2,0.2-0.3,0.3c-0.1,0.2-0.1,0.3-0.2,0.6
		c0,0.2-0.1,0.5-0.1,0.9s0,0.7,0.1,1s0.1,0.5,0.2,0.6s0.2,0.2,0.3,0.3c0.1,0.1,0.3,0.1,0.4,0.1c0.2,0,0.3,0,0.5-0.1
		c0.1-0.1,0.2-0.2,0.3-0.3s0.1-0.4,0.2-0.6C20.3,23.7,20.3,23.4,20.3,23.1z"/>
</g>
</svg>
