<?xml version="1.0" encoding="utf-8"?>
<!-- Generator: Adobe Illustrator 22.0.1, SVG Export Plug-In . SVG Version: 6.00 Build 0)  -->
<svg version="1.1" id="Слой_1" xmlns="http://www.w3.org/2000/svg" xmlns:xlink="http://www.w3.org/1999/xlink" x="0px" y="0px"
	 viewBox="0 0 35 35" style="enable-background:new 0 0 35 35;" xml:space="preserve">
<style type="text/css">
	.st0{fill:none;stroke:#FFFFFF;stroke-width:1.831;stroke-linecap:round;stroke-miterlimit:10;}
	.st1{fill:#FFFFFF;}
	.st2{fill:none;stroke:#FFFFFF;stroke-width:1.4648;stroke-miterlimit:10;}
	.st3{fill:#FFFFFF;stroke:#FFFFFF;stroke-width:1.4648;stroke-miterlimit:10;}
</style>
<path class="st0" d="M29,25.9H10.5c-1,0-1.8-0.7-2-1.7L6.2,7.7C6,6.8,5.4,6.1,4.6,6L1.9,5.4"/>
<circle class="st1" cx="12" cy="29.7" r="1.9"/>
<circle class="st1" cx="25.8" cy="29.7" r="1.9"/>
<g>
	<path class="st2" d="M8.2,21.5l-1.4-9.8c-0.1-0.9,0.6-1.8,1.5-1.8h21.2c1,0,1.7,0.9,1.5,1.9L30,16.8c-0.1,0.6-0.6,1-1.1,1.2
		l-18.8,4.8C9.2,23,8.3,22.4,8.2,21.5z"/>
	<line class="st3" x1="12.9" y1="9.9" x2="14.4" y2="21.7"/>
	<line class="st3" x1="21.6" y1="9.9" x2="22.4" y2="19.7"/>
	<line class="st3" x1="7.5" y1="16.4" x2="30.6" y2="13.8"/>
</g>
</svg>
