<?xml version="1.0" encoding="utf-8"?>
<!-- Generator: Adobe Illustrator 22.0.1, SVG Export Plug-In . SVG Version: 6.00 Build 0)  -->
<svg version="1.1" id="Capa_1" xmlns="http://www.w3.org/2000/svg" xmlns:xlink="http://www.w3.org/1999/xlink" x="0px" y="0px"
	 viewBox="0 0 956 956" style="enable-background:new 0 0 956 956;" xml:space="preserve">
<style type="text/css">
	.st0{fill:#FFFFFF;}
</style>
<path class="st0" d="M603.2,604c-24.2,13.8-55.1,5.3-68.9-19c0,0,0,0,0,0c0,0-25.9-17.3-69.2-93.5s-44.9-107.3-44.9-107.3
	c0,0-0.9,0.5-0.9,0.5c-13.8-24.2-4.4-55.6,19.8-69.3l0,0c23.8-13.5,32.1-43.7,18.6-67.5l-28.9-50.9c-15.6-27.4-50.3-37-77.7-21.4
	l-35.6,20.3c-63.4,36-89.9,119.1-53.9,182.4c0,0,0,0,0,0c0,0,51.9,109.7,90.5,177.5s106.4,165,106.4,165c0,0,0,0,0,0
	c36.8,64.8,121.8,86,186.7,49.2l41.7-23.7c22.6-12.8,30.5-41.5,17.6-64.1l-33.8-59.6C657.2,598.8,626.9,590.5,603.2,604L603.2,604z"
	/>
</svg>
