<?xml version="1.0" encoding="utf-8"?>
<!-- Generator: Adobe Illustrator 22.0.1, SVG Export Plug-In . SVG Version: 6.00 Build 0)  -->
<svg version="1.1" id="Capa_1" xmlns="http://www.w3.org/2000/svg" xmlns:xlink="http://www.w3.org/1999/xlink" x="0px" y="0px"
	 viewBox="0 0 956 956" style="enable-background:new 0 0 956 956;" xml:space="preserve">
<style type="text/css">
	.st0{fill:#FFFFFF;}
</style>
<g>
	<g>
		<path class="st0" d="M790.7,283c-23.1,10.6-48,17.1-73.8,20.3c26.7-16.1,47-41,56.7-71C748.7,246.6,721,258,692,264
			c-22.6-24.9-56.2-40.1-93.6-40.1c-71,0-128.2,57.2-128.2,128.2c0,10.6,0.9,20.3,2.8,29.5c-106.5-5.5-201.1-56.3-264.7-134.2
			c-11.5,19.4-17.1,41-17.1,64.1c0,45.2,23.1,84.4,57.6,107.4c-21.2-0.9-41-6.9-58.6-16.1c0,0.9,0,0.9,0,1.8
			c0,62.3,44.3,113.9,103.3,125.4c-10.6,2.8-22.1,4.6-33.7,4.6c-8.8,0-16.1-0.9-24-1.8c16.1,50.7,64.1,88.1,119.9,89
			c-44.3,34.6-99.6,54.4-160,54.4c-10.6,0-20.3-0.9-30.4-1.8C222,710.8,289.8,732,362.7,732c236.6,0,365.7-195.5,365.7-365.7
			c0-5.5,0-11.5,0-16.1C751.5,331.9,773.6,308.8,790.7,283L790.7,283z"/>
	</g>
</g>
</svg>
