<?xml version="1.0" encoding="utf-8"?>
<!-- Generator: Adobe Illustrator 22.0.1, SVG Export Plug-In . SVG Version: 6.00 Build 0)  -->
<svg version="1.1" id="Слой_1" xmlns="http://www.w3.org/2000/svg" xmlns:xlink="http://www.w3.org/1999/xlink" x="0px" y="0px"
	 viewBox="0 0 956 956" style="enable-background:new 0 0 956 956;" xml:space="preserve">
<style type="text/css">
	.st0{fill:#FFFFFF;}
</style>
<g id="color_x5F_fill">
	<path class="st0" d="M851.5,693.2c-27.8,17-139,21.9-165.8,2.5c-14.7-10.7-27.8-24.4-41.4-36.6c-8.3-8.3-19.5-13.2-26.9-22.9
		c-5.9-8.3-10.7-17-17-25.4c-10.7-13.2-27.8-24.4-42.4-8.3c-20.4,24.4,3.4,71.7-24.4,90.2c-9.7,5.9-18.1,7.3-30.2,7.3l-24.4,1
		c-14.7,0-39,0-56.1-2.5c-19.5-3.4-34.1-13.2-52.2-21.9c-32.6-14.7-63.4-34.1-87.8-61C218.6,541.5,131.7,439.1,99.1,345
		c-7.3-19.5-25.4-57-7.3-73.1c22.9-17,139-21.9,157,4.9c7.3,10.7,12.2,26.9,17.1,39c5.9,14.7,9.7,29.2,19.5,42.4
		c8.3,12.2,15.6,24.4,21.9,36.6c7.3,14.7,14.7,29.2,24.4,42.4c5.9,9.7,22.9,27.8,34.1,29.2c25.4,3.4,24.4-59.5,21.9-75.6
		c-2.5-14.7-2.5-30.2-2.5-46.3c0-13.2,1-30.2-5.9-41.4c-12.2-17-40-4.9-42.4-26.9c4.9-5.9,3.4-12.2,34.1-21.9
		c24.4-7.3,40-7.3,56.1-5.9c32.6,2.5,66.8-5.9,97.5,4.9c29.2,9.7,25.4,52.2,24.4,78c-1,34.1,0,68.3,0,103.4c0,15.6-1,31.7,18.1,30.3
		c18.1-1,20.4-17,29.2-29.2c12.2-18.1,22.9-35.1,35.1-53.6c17-24.4,21.9-51.2,37.6-75.6c5.9-8.3,10.7-27.8,19.5-35.1
		c5.9-4.9,19.5-2.5,26.9-2.5h18.1c14.7,0,29.2,0,43.9,1c21.9,1,44.8-3.4,66.8-1c91.2,13.2-114.6,208.3-103.4,243.8
		c7.3,24.4,54.6,51.2,71.7,70.7C836.9,607.9,906.1,660.1,851.5,693.2z"/>
</g>
<g id="offset_x5F_print_x5F_outline">
</g>
</svg>
